# xmcd
#
# Track frame offsets:
#	150
#	14072
#	30144
#	43885
#	59502
#	76255
#	90356
#	104191
#	120061
#	133875
#
# Disc length: 1962 seconds
#
# Revision: 2
# Processed by: cddbd v1.5.2PL0 Copyright (c) Steve Scherf et al.
# Submitted via: EZCDAudioConverter 1.3.4.1
#
DISCID=7c07a80a
DTITLE=Pupo - Lo devo solo a te
DYEAR=2002
DGENRE=Blues
TTITLE0=Lo devo solo a te
TTITLE1=Perchè è così
TTITLE2=Chissà se domani
TTITLE3=Nashville
TTITLE4=Volano
TTITLE5=Non mi arrendevo mai
TTITLE6=La storia di noi due
TTITLE7=Lidia a Mosca
TTITLE8=Burattino telecomandato
TTITLE9=Ti sembra facile
EXTD=
EXTT0=
EXTT1=
EXTT2=
EXTT3=
EXTT4=
EXTT5=
EXTT6=
EXTT7=
EXTT8=
EXTT9=
PLAYORDER=
